PathFileType	4	(X/Y/Z)	C:/Users/opensim2020/Desktop/walking_exp_matlab/subject02/subject02_trc/subject02_walking16_run_cyclic.trc	
DataRate	CameraRate	NumFrames	NumMarkers	Units	OrigDataRate	OrigDataStartFrame	OrigNumFrames	
100.00	100.00	5	51	mm	100.00	217	60	
Frame#	Time	RTOE			LSHO			LELB			RELB			RFIN			LTHI			LKNE			RWRB			RUPA			LTIB			RASI			LANK			LTOE			RSHO			RWRA			RFRM			LASI			STRN			LFHD			RTHI			RFHD			LWRB			LFIN			LUPA			RKNE			RBHD			LFRM			C7			LWRA			RTIB			CLAV			LHEE			RANK			LBHD			RBAK			RHEE			T10			LPSI			RPSI			*39			*40			*41			*42			*43			*44			*45			*46			*47			*48			*49			*50			
		X1	Y1	Z1	X2	Y2	Z2	X3	Y3	Z3	X4	Y4	Z4	X5	Y5	Z5	X6	Y6	Z6	X7	Y7	Z7	X8	Y8	Z8	X9	Y9	Z9	X10	Y10	Z10	X11	Y11	Z11	X12	Y12	Z12	X13	Y13	Z13	X14	Y14	Z14	X15	Y15	Z15	X16	Y16	Z16	X17	Y17	Z17	X18	Y18	Z18	X19	Y19	Z19	X20	Y20	Z20	X21	Y21	Z21	X22	Y22	Z22	X23	Y23	Z23	X24	Y24	Z24	X25	Y25	Z25	X26	Y26	Z26	X27	Y27	Z27	X28	Y28	Z28	X29	Y29	Z29	X30	Y30	Z30	X31	Y31	Z31	X32	Y32	Z32	X33	Y33	Z33	X34	Y34	Z34	X35	Y35	Z35	X36	Y36	Z36	X37	Y37	Z37	X38	Y38	Z38	X39	Y39	Z39	X40	Y40	Z40	X41	Y41	Z41	X42	Y42	Z42	X43	Y43	Z43	X44	Y44	Z44	X45	Y45	Z45	X46	Y46	Z46	X47	Y47	Z47	X48	Y48	Z48	X49	Y49	Z49	X50	Y50	Z50	X51	Y51	Z51	

51	0.500	125.28958	254.15147	37.24806	-104.04227	277.24380	1455.04993	-359.97070	336.12167	1236.34302	340.10791	50.92673	1138.09473	319.05048	318.45166	1030.31323	-127.26261	248.31093	610.49780	-100.60461	226.24823	439.24667	310.97156	261.35321	1000.89874	307.78314	85.62967	1274.96399	-83.93575	55.54696	414.52350	181.74380	266.20111	932.18073	-44.56113	-144.17706	344.70755	-66.75061	-163.73589	189.57735	238.53450	195.02124	1431.22546	283.51508	272.09286	1052.10156	330.60684	156.97794	1067.57422	-68.87782	285.56546	916.65796	65.13503	330.25238	1215.47754	-8.80192	306.39529	1694.08728	231.59547	232.32219	635.51489	134.99934	313.01511	1686.93555	-308.79031	432.07364	992.98401	-276.44791	441.98083	933.71381	-269.48022	299.65121	1343.09912	170.49969	286.28561	434.63348	136.23927	187.24547	1584.25134	-343.19479	391.60910	1104.91064	44.82503	166.46188	1475.98059	-260.29129	398.85812	996.45447	169.34843	196.91107	263.98178	64.06950	303.37622	1396.05847	13.60001	-168.20882	364.52417	120.68845	113.79410	90.65115	-6.75941	191.94705	1595.49927	82.95271	77.44141	1315.32349	64.17575	62.05247	42.36632	30.05443	83.06998	1217.76086	-16.54828	80.96440	988.20074	95.42587	62.48185	992.87238				-3356.88086	2846.26685	1034.38135																									81.55094	195.84245	1745.34558			 
52	0.510	125.29940	253.63907	37.20673	-106.18874	315.25534	1455.19922	-372.76810	353.05142	1249.69385	344.84476	113.24609	1129.70154	307.32837	388.38303	1045.93823	-126.40624	300.91925	614.18011	-98.51878	292.27136	443.60114	303.86819	333.73886	1011.83600	310.69858	134.32608	1269.38977	-82.59680	123.95264	414.70944	187.65712	300.73099	925.20764	-46.55523	-74.23347	335.30228	-66.99975	-81.60308	179.34192	239.51848	235.64180	1432.23987	275.70731	338.00595	1063.39392	329.16626	225.19095	1068.78064	-67.01043	324.81186	909.72595	66.34328	369.52939	1216.19434	-9.35348	343.74469	1694.40698	233.01675	262.06247	634.48969	135.18327	351.58374	1688.24646	-333.67114	447.12738	999.11340	-302.34573	458.58185	939.25848	-275.78607	320.71576	1350.53662	173.13713	294.72534	428.25397	136.90907	226.09013	1584.70972	-361.53308	408.65555	1114.48474	46.51817	206.79095	1477.93237	-281.24805	420.64258	1003.56610	167.64919	202.64186	259.42670	63.41967	342.59912	1396.23206	10.95717	-102.06889	354.11639	119.76002	114.33913	90.64722	-6.04120	229.83572	1595.34888	88.51448	116.80033	1317.52576	62.18213	61.93102	43.71963	33.65623	121.76824	1218.09473	-12.23925	115.48140	992.37732	98.58916	100.78690	999.31018				-3356.69409	2846.08740	1034.36047																									81.04406	233.34270	1745.54956			 
53	0.520	125.38652	253.37033	37.02103	-108.01127	350.78394	1458.19202	-381.78738	370.60486	1265.94238	349.47159	176.99303	1125.34839	294.43723	457.02972	1068.23828	-125.45194	352.43973	619.48956	-96.10350	357.34421	449.46289	295.97906	404.70251	1029.33899	311.42419	183.67490	1267.57617	-80.42405	191.66473	416.17603	190.89592	337.15048	919.31384	-48.10974	-3.57833	322.26395	-67.34492	2.46426	167.09659	240.38940	277.45389	1435.18762	266.27661	401.84250	1080.02295	327.02686	292.63885	1075.77454	-69.64230	363.36475	907.92242	67.45641	409.10049	1218.20313	-10.30117	381.69904	1695.99365	232.46310	292.41190	631.88452	133.76831	389.82483	1690.14087	-352.81076	461.16629	1009.60596	-321.84473	474.58337	949.47009	-278.71078	341.27725	1360.97229	175.01765	303.07733	422.76096	136.50085	265.10397	1585.82886	-377.04294	423.61792	1128.38940	48.07597	246.24045	1479.64758	-297.55774	442.46402	1015.86713	167.84747	207.86736	256.09695	61.97959	381.88913	1398.04541	8.09985	-35.59114	340.01599	119.88055	114.67743	92.73682	-6.46602	268.39597	1596.02283	92.23726	156.99294	1319.88721	61.96888	61.55264	47.82817	36.53123	160.53517	1219.80029	-7.83139	152.04488	995.18585	101.52049	139.77451	1003.82135				-3356.81567	2846.01538	1034.47424																									80.02233	271.23749	1746.20410			 
54	0.530	125.10801	252.92177	36.77312	-109.03949	383.47968	1463.86218	-389.32507	388.54849	1282.14746	353.94440	241.55949	1125.91174	280.12906	521.77655	1094.99829	-124.99195	403.56009	627.08875	-92.84750	421.03326	457.81183	287.46585	473.00354	1051.91589	313.22095	234.82283	1269.44446	-77.91011	258.49396	416.96033	192.14455	374.85397	915.65393	-49.72961	67.57710	306.94461	-66.73776	89.34614	152.91057	240.30859	320.24078	1440.46704	256.62189	463.45996	1100.88013	324.71457	359.04605	1087.40308	-71.73861	401.13562	913.19800	67.59347	449.16840	1222.08154	-11.63099	420.09406	1699.54846	231.75504	318.96008	626.56036	132.32486	428.01443	1693.44458	-366.55228	475.35025	1023.30151	-335.42026	491.27716	962.57446	-280.96469	364.03055	1373.08984	175.98396	313.12259	417.93338	134.97546	304.27371	1588.12988	-389.61526	438.26642	1143.48804	49.03643	284.19461	1481.57568	-309.44666	464.75900	1031.32800	167.33974	214.25026	255.53589	59.71848	421.21939	1401.73157	5.51851	32.28759	322.55212	119.29171	115.97448	95.79091	-8.04254	307.50668	1598.65564	95.31344	198.07407	1321.77893	60.97705	61.82323	53.56387	38.99098	200.01024	1222.33069	-3.62799	191.22903	997.65436	104.19648	179.35445	1007.18689				-3357.22119	2845.91431	1034.47900																									78.83417	309.39563	1748.77722			 
55	0.540	124.96229	252.98657	36.50667	-109.98453	414.70569	1471.09363	-395.56799	406.07361	1297.93054	358.37207	306.15021	1130.78503	266.26596	582.59045	1124.52759	-124.55166	454.67950	637.01648	-89.07303	483.08621	468.41394	277.73477	537.99792	1077.49841	317.26532	288.57632	1273.85291	-76.52158	324.05569	416.37369	192.21466	414.94424	916.54956	-51.28221	140.42854	289.23203	-65.18582	178.66194	138.09602	239.12709	363.44128	1447.66101	246.32198	522.13165	1123.94568	321.57623	423.69763	1102.35730	-71.52185	441.64941	924.25317	66.52563	489.69608	1227.36816	-13.06371	458.64700	1704.94092	230.80434	339.34766	624.61719	131.59348	466.53265	1698.29419	-375.78317	490.53265	1038.42261	-344.39709	509.74255	977.89319	-281.91895	388.73587	1386.44934	176.22188	325.44943	415.44928	132.25247	342.55676	1592.02917	-398.07388	453.71286	1158.82397	49.44982	321.25134	1484.21899	-318.22510	487.47641	1048.39758	166.56099	221.04617	258.35571	56.78560	460.97092	1406.85974	2.93934	101.96382	302.09332	118.64699	117.19305	101.65026	-10.36469	346.46790	1603.42322	97.82052	239.45374	1324.50024	59.99887	63.52295	61.75428	41.66488	240.16487	1225.66235	-1.09246	232.36403	1001.46277	106.58250	219.06975	1009.85962				-3360.32275	2845.27563	1034.44458																									77.30805	347.22083	1752.94507			 
